<?xml version="1.0" standalone="no"?>
<!DOCTYPE svg PUBLIC "-//W3C//DTD SVG 20010904//EN"
 "http://www.w3.org/TR/2001/REC-SVG-20010904/DTD/svg10.dtd">
<svg version="1.0" xmlns="http://www.w3.org/2000/svg"
 width="542.000000pt" height="542.000000pt" viewBox="0 0 542.000000 542.000000"
 preserveAspectRatio="xMidYMid meet">
<metadata>
Created by potrace 1.11, written by Peter Selinger 2001-2013
</metadata>
<g transform="translate(0.000000,542.000000) scale(0.100000,-0.100000)"
fill="#000000" stroke="none">
<path d="M2708 5396 c-1 -2 -64 -6 -138 -10 -74 -3 -146 -8 -160 -10 -92 -12
-138 -19 -155 -22 -11 -2 -46 -9 -77 -14 -32 -6 -113 -26 -182 -45 -451 -124
-854 -359 -1186 -694 -266 -268 -452 -552 -598 -911 -54 -134 -127 -394 -146
-520 -9 -66 -25 -195 -31 -255 -6 -73 -7 -345 -1 -400 3 -22 8 -69 12 -105 6
-64 8 -76 18 -135 3 -16 8 -48 12 -70 9 -64 60 -254 95 -356 229 -680 727
-1240 1379 -1553 215 -103 493 -194 675 -220 22 -3 51 -8 65 -11 218 -41 575
-41 844 0 108 17 147 25 156 30 4 2 22 7 41 10 168 29 525 171 714 282 143 86
312 204 390 274 17 15 57 51 89 81 357 324 635 776 764 1243 17 61 33 122 36
138 2 15 7 35 10 45 3 9 7 35 11 57 5 40 11 75 20 130 26 159 26 581 0 716 -3
13 -8 44 -11 69 -27 217 -129 532 -248 769 -374 746 -1078 1280 -1891 1436
-18 3 -62 10 -195 30 -19 3 -91 7 -160 11 -69 3 -130 7 -137 9 -6 2 -13 2 -15
1z"/>
</g>
</svg>
